<svg xmlns="http://www.w3.org/2000/svg" width="630" height="500" viewBox="0 0 630 500"><defs><radialGradient id="bg" cx="50%" cy="50%" r="70%"><stop offset="0%" stop-color="#1a1f3a"/><stop offset="60%" stop-color="#0a0e1a"/><stop offset="100%" stop-color="#05070f"/></radialGradient><filter id="glow" width="200%" height="200%" x="-50%" y="-50%"><feGaussianBlur result="blur" stdDeviation="4"/><feMerge><feMergeNode in="blur"/><feMergeNode in="SourceGraphic"/></feMerge></filter></defs><rect width="630" height="500" fill="url(#bg)"/><g fill="none" stroke="#00f0ff33" stroke-width="1"><path d="M0 330 L630 270"/><path d="M0 370 L630 310"/><path d="M0 410 L630 350"/><path d="M0 450 L630 390"/><path d="M0 490 L630 430"/><path d="M90 230 L90 500"/><path d="M180 240 L180 500"/><path d="M270 250 L270 500"/><path d="M360 250 L360 500"/><path d="M450 240 L450 500"/><path d="M540 230 L540 500"/></g><g filter="url(#glow)" transform="translate(315,60)"><polygon fill="#8a00f0" stroke="#00f0ff" stroke-width="2" points="0 -30 30 0 0 30 -30 0"/><polygon fill="gold" points="0 -14 14 0 0 14 -14 0"/></g><text x="315" y="180" fill="#00f0ff" filter="url(#glow)" font-family="Courier New, monospace" font-size="72" font-weight="bold" letter-spacing="14" text-anchor="middle">EVM</text><text x="315" y="220" fill="#00f0ff" font-family="Courier New, monospace" font-size="22" letter-spacing="8" opacity=".9" text-anchor="middle">THE MACHINE</text><text x="315" y="260" fill="#8a00f0" font-family="Courier New, monospace" font-size="12" letter-spacing="6" opacity=".85" text-anchor="middle">A FIRST-PERSON JOURNEY THROUGH ETHEREUM</text><text x="315" y="460" fill="gold" font-family="Courier New, monospace" font-size="10" letter-spacing="5" opacity=".7" text-anchor="middle">GAMEDEV.JS JAM 2026</text><text x="315" y="478" fill="#00f0ff" font-family="Courier New, monospace" font-size="10" letter-spacing="5" opacity=".45" text-anchor="middle">THEME: MACHINES</text></svg>